<?xml version="1.0" standalone="no"?>
<!DOCTYPE svg PUBLIC "-//W3C//DTD SVG 20010904//EN"
 "http://www.w3.org/TR/2001/REC-SVG-20010904/DTD/svg10.dtd">
<svg version="1.0" xmlns="http://www.w3.org/2000/svg"
 width="182.000000pt" height="186.000000pt" viewBox="0 0 182.000000 186.000000"
 preserveAspectRatio="xMidYMid meet">
<metadata>
Created by potrace 1.16, written by Peter Selinger 2001-2019
</metadata>
<g transform="translate(0.000000,186.000000) scale(0.100000,-0.100000)"
fill="#000000" stroke="none">
<path d="M704 1593 c-48 -9 -98 -97 -75 -132 13 -20 78 -8 107 20 26 24 39 68
29 99 -6 19 -17 22 -61 13z"/>
<path d="M1067 1593 c-11 -10 -8 -72 3 -94 13 -24 61 -49 94 -49 32 0 41 29
26 76 -9 27 -22 40 -54 55 -44 20 -59 23 -69 12z"/>
<path d="M491 1532 c-34 -51 -39 -126 -12 -169 12 -18 25 -33 31 -33 14 0 13
5 -10 42 -25 41 -25 83 -2 128 25 46 36 47 62 5 33 -53 24 -110 -35 -226 -59
-116 -75 -173 -75 -267 0 -160 100 -331 236 -400 99 -51 246 -68 345 -42 105
29 223 117 276 208 75 127 83 318 21 439 -89 169 -90 178 -52 263 l28 62 17
-34 c25 -46 24 -103 -3 -146 -14 -23 -17 -33 -8 -30 27 9 53 56 53 97 0 40
-39 131 -58 138 -10 3 -57 -98 -70 -149 -4 -14 -2 -42 3 -62 6 -20 9 -36 7
-36 -1 0 -19 7 -38 15 -40 16 -97 20 -97 6 0 -5 20 -12 45 -15 48 -8 65 -20
39 -30 -49 -19 -136 7 -178 53 -18 20 -18 21 9 31 55 21 110 23 143 6 18 -9
32 -12 32 -7 0 5 -18 16 -40 25 -37 15 -46 15 -108 0 -85 -21 -92 -27 -61 -60
65 -70 166 -96 225 -58 l27 18 32 -37 c32 -37 70 -117 56 -117 -4 0 -16 9 -27
21 -10 12 -31 27 -45 34 -24 13 -28 11 -78 -41 -45 -47 -55 -53 -68 -42 -14
11 -19 8 -37 -17 -12 -17 -42 -50 -67 -75 -25 -25 -56 -59 -68 -77 -19 -28
-132 -123 -146 -123 -3 0 -5 19 -5 41 0 43 3 45 53 24 31 -13 18 10 -15 25
-18 8 -34 21 -36 28 -3 11 0 12 16 3 11 -6 29 -11 39 -11 13 0 9 6 -13 19 -18
11 -35 25 -40 32 -7 12 -5 12 44 -8 6 -3 12 0 12 5 0 6 -9 13 -19 17 -11 3
-25 13 -33 22 -12 15 -10 16 15 9 15 -3 27 -2 27 3 0 5 -9 11 -20 14 -24 6
-26 24 -3 29 12 2 10 6 -10 17 -22 12 -28 11 -48 -3 -19 -13 -20 -16 -6 -16 9
0 17 -4 17 -10 0 -5 -4 -10 -8 -10 -5 0 -17 -7 -28 -15 -18 -15 -18 -15 9 -9
38 9 36 -14 -3 -29 -16 -6 -30 -15 -30 -19 0 -10 3 -10 35 2 40 15 27 -11 -15
-31 -18 -9 -29 -19 -23 -22 5 -3 21 0 36 8 24 12 27 12 27 -1 0 -8 -17 -22
-37 -31 -21 -9 -33 -18 -26 -20 7 -2 21 0 32 6 30 17 32 14 29 -36 l-3 -47
-55 -12 c-81 -19 -90 -18 -90 12 0 27 6 28 53 9 9 -4 17 -3 17 3 0 5 -13 15
-29 22 -16 6 -32 19 -35 27 -5 11 -2 13 11 8 39 -16 56 -18 49 -7 -4 7 -13 12
-20 12 -7 0 -21 10 -32 21 l-19 21 35 -6 35 -7 -32 20 c-39 25 -42 36 -8 27
34 -9 32 8 -2 24 l-28 13 25 7 25 7 -26 12 c-22 11 -31 10 -55 -3 -27 -14 -27
-15 -6 -16 30 0 28 -18 -3 -26 -14 -3 -23 -10 -20 -14 3 -5 14 -6 25 -3 33 9
23 -17 -12 -33 l-33 -15 33 5 c44 7 39 -13 -9 -36 -22 -11 -28 -17 -16 -18 10
0 27 5 38 10 15 8 19 7 19 -4 0 -8 -16 -20 -35 -27 -19 -7 -35 -17 -35 -22 0
-9 18 -6 53 8 14 6 17 2 17 -29 0 -20 -3 -36 -7 -36 -5 0 -18 -3 -29 -6 -18
-5 -26 3 -47 48 -75 158 -64 334 25 388 34 20 118 28 118 11 0 -17 -67 -51
-99 -51 -17 0 -31 -4 -31 -10 0 -5 20 -10 44 -10 35 0 50 6 75 29 17 16 31 36
31 44 0 32 -116 29 -156 -4 -21 -17 -17 4 9 41 33 50 52 58 77 35 19 -17 37
-20 114 -20 50 -1 99 -4 109 -9 13 -6 17 -4 17 12 0 12 -4 32 -10 46 -8 23 -7
26 11 26 33 0 59 19 59 43 0 30 -72 107 -99 107 -12 0 -33 -11 -47 -25 -14
-14 -29 -25 -33 -25 -5 0 -14 -6 -20 -14 -6 -7 -24 -16 -39 -20 -32 -7 -59
-23 -51 -30 3 -4 20 1 38 10 27 14 40 15 71 5 37 -11 100 -70 100 -94 0 -14
-176 -17 -197 -4 -25 16 -12 26 37 33 28 4 50 10 50 15 0 12 -57 11 -99 -1
-19 -5 -36 -9 -37 -7 -1 1 3 23 8 49 8 35 8 58 -1 87 -11 38 -55 101 -69 101
-4 0 -18 -17 -31 -38z m735 -395 c8 3 21 -1 30 -8 14 -11 18 -11 29 4 11 16
14 16 39 -4 23 -18 26 -27 25 -77 -1 -31 -4 -47 -6 -35 -9 48 -73 56 -73 9 0
-21 -6 -24 -67 -29 -60 -6 -173 -32 -227 -53 -19 -7 -19 -6 1 22 12 16 46 55
75 87 57 61 72 63 80 8 6 -42 27 -37 23 6 -3 41 30 92 48 74 5 -5 16 -7 23 -4z
m122 -183 l-3 -26 -140 -3 c-104 -2 -159 -8 -215 -23 -41 -12 -76 -19 -78 -17
-8 8 80 46 150 64 97 26 109 28 206 30 l83 1 -3 -26z m-88 -115 c27 -6 50 -14
50 -18 0 -5 -18 -35 -36 -59 -1 -2 -38 8 -82 22 -44 14 -124 30 -177 35 -54 5
-99 12 -102 15 -3 2 22 7 54 11 32 4 63 8 68 11 16 6 170 -5 225 -17z m-255
-38 c47 -6 45 -7 -45 -14 -120 -9 -210 -28 -294 -62 -53 -21 -70 -24 -81 -15
-26 22 -16 38 33 54 115 37 277 53 387 37z m109 -40 c3 -5 -25 -12 -62 -16
-92 -10 -220 -54 -280 -98 l-50 -36 -46 29 c-25 16 -46 34 -46 39 0 22 151 72
250 84 71 8 229 7 234 -2z m31 -29 c-6 -5 -31 -16 -56 -26 -55 -20 -129 -71
-160 -109 -20 -27 -25 -28 -73 -22 -28 4 -64 13 -81 20 l-30 12 50 31 c64 42
139 69 234 86 90 17 129 19 116 8z m95 -11 c0 -14 -78 -75 -128 -100 -48 -24
-161 -56 -169 -47 -20 20 102 100 200 132 80 26 97 28 97 15z"/>
<path d="M390 1315 c-7 -8 -10 -22 -6 -30 6 -17 46 -21 46 -4 0 6 -7 9 -15 5
-9 -3 -15 0 -15 9 0 19 39 19 46 0 3 -7 -7 -45 -22 -82 -36 -91 -44 -229 -19
-331 65 -268 362 -446 628 -377 218 57 377 241 403 466 8 72 -10 178 -44 253
-25 56 -25 59 -7 72 15 11 21 11 33 1 13 -10 13 -12 -1 -15 -23 -5 -21 -22 2
-22 24 0 35 28 20 47 -16 18 -59 13 -72 -9 -8 -12 -4 -36 17 -96 100 -289 -34
-572 -317 -667 -280 -94 -584 79 -653 371 -22 93 -14 203 22 287 36 86 38 101
19 120 -20 21 -49 22 -65 2z"/>
<path d="M260 1045 c-6 -8 -10 -22 -8 -32 4 -21 39 -24 46 -4 3 9 -1 11 -17 6
-24 -7 -28 7 -6 25 22 18 45 -4 45 -44 1 -61 30 -172 66 -246 44 -89 148 -199
235 -248 116 -66 303 -90 434 -57 110 28 184 72 270 159 111 112 174 251 175
382 0 49 21 74 45 54 21 -18 19 -32 -5 -25 -15 5 -18 3 -14 -9 8 -21 40 -21
48 0 16 41 -45 74 -74 39 -7 -8 -16 -48 -20 -88 -28 -250 -212 -451 -460 -503
-291 -61 -596 135 -665 428 -8 35 -15 80 -15 101 0 21 -5 47 -10 58 -13 22
-52 25 -70 4z"/>
</g>
</svg>
